HIERARCHY
ROOT Hips
{
  OFFSET -125.086 92.215 135.881
  CHANNELS 6 Xposition Yposition Zposition Zrotation Xrotation Yrotation
  JOINT LeftUpLeg
  {
    OFFSET 8.64259 1.95398 -2.38835
    CHANNELS 3 Zrotation Xrotation Yrotation
    JOINT LeftLeg
    {
      OFFSET 43.7702 0 0
      CHANNELS 3 Zrotation Xrotation Yrotation
      JOINT LeftFoot
      {
        OFFSET 40.6238 0 0
        CHANNELS 3 Zrotation Xrotation Yrotation
        JOINT LeftToeBase
        {
          OFFSET 12.7242 0 0
          CHANNELS 3 Zrotation Xrotation Yrotation
          End Site
          {
            OFFSET 0 0 0
          }
        }
      }
    }
  }
  JOINT RightUpLeg
  {
    OFFSET -8.2249 1.95398 -2.59336
    CHANNELS 3 Zrotation Xrotation Yrotation
    JOINT RightLeg
    {
      OFFSET 43.5653 0 0
      CHANNELS 3 Zrotation Xrotation Yrotation
      JOINT RightFoot
      {
        OFFSET 40.6238 0 0
        CHANNELS 3 Zrotation Xrotation Yrotation
        JOINT RightToeBase
        {
          OFFSET 12.7242 0 0
          CHANNELS 3 Zrotation Xrotation Yrotation
          End Site
          {
            OFFSET 0 0 0
          }
        }
      }
    }
  }
  JOINT Spine
  {
    OFFSET 0.165834 0.87714 6.61349
    CHANNELS 3 Zrotation Xrotation Yrotation
    JOINT Spine1
    {
      OFFSET 7.38963 1.71661e-005 0
      CHANNELS 3 Zrotation Xrotation Yrotation
      JOINT Spine2
      {
        OFFSET 11.9445 1.14441e-005 0
        CHANNELS 3 Zrotation Xrotation Yrotation
        JOINT Spine3
        {
          OFFSET 14.7254 4.19617e-005 0
          CHANNELS 3 Zrotation Xrotation Yrotation
          JOINT Spine4
          {
            OFFSET 10.9679 0 0
            CHANNELS 3 Zrotation Xrotation Yrotation
            JOINT RightShoulder
            {
              OFFSET 2.46616 -1.6653 3.69651
              CHANNELS 3 Zrotation Xrotation Yrotation
              JOINT RightArm
              {
                OFFSET 13.0012 0 0
                CHANNELS 3 Zrotation Xrotation Yrotation
                JOINT RightForeArm
                {
                  OFFSET 28.7848 1.52588e-005 0
                  CHANNELS 3 Zrotation Xrotation Yrotation
                  JOINT RightHand
                  {
                    OFFSET 26.5688 1.52588e-005 0
                    CHANNELS 3 Zrotation Xrotation Yrotation
                    End Site
                    {
                      OFFSET 0 0 0
                    }
                  }
                }
              }
            }
            JOINT LeftShoulder
            {
              OFFSET 2.38034 -1.29275 -3.7523
              CHANNELS 3 Zrotation Xrotation Yrotation
              JOINT LeftArm
              {
                OFFSET 16.3182 6.10352e-005 0
                CHANNELS 3 Zrotation Xrotation Yrotation
                JOINT LeftForeArm
                {
                  OFFSET 27.0901 0 0
                  CHANNELS 3 Zrotation Xrotation Yrotation
                  JOINT LeftHand
                  {
                    OFFSET 24.5451 1.52588e-005 0
                    CHANNELS 3 Zrotation Xrotation Yrotation
                    End Site
                    {
                      OFFSET 0 0 0
                    }
                  }
                }
              }
            }
            JOINT Neck
            {
              OFFSET 5.0226 -0.0266342 0
              CHANNELS 3 Zrotation Xrotation Yrotation
              JOINT Head
              {
                OFFSET 6.69363 2.86102e-005 0
                CHANNELS 3 Zrotation Xrotation Yrotation
                End Site
                {
                  OFFSET 0 0 0
                }
              }
            }
          }
        }
      }
    }
  }
}
MOTION
Frames:	7
Frame Time:	0.0416667
-1.16869 33.796 -36.7071 165.821 -65.5094 166.364 169.396 75.3782 113.74 -157.17 6.89899 2.48635 80.4416 13.3903 -4.3535 62.4827 0.412489 18.167 -153.566 64.6874 31.8944 -154.564 -21.7651 -3.22865 89.8993 -10.1581 16.0049 51.3782 -3.38137 1.2985 0.305381 13.2938 -90.7218 0.286208 0.341133 -1.38836 -11.3855 0.279707 -1.40202 -33.916 0.742587 -1.23019 -13.9034 0.742585 -1.23018 100.902 -31.8005 -84.687 -7.52687 -22.587 -66.661 -31.4423 -10.3881 -79.3698 -38.84 -5.6392 11.0129 -81.7238 -26.4184 88.7343 -27.8176 18.7656 -62.7994 27.3246 19.2411 -69.2269 0.796704 -0.181758 -7.66717 13.3117 -3.05969 20.5967 8.62423 -10.506 -20.8454 
-1.3268 33.7498 -36.6285 165.76 -65.3638 166.186 169.283 75.1284 114.117 -157.238 6.96588 2.55748 80.8248 13.5738 -4.47128 60.9692 -1.10586 9.86785 -154.063 63.9561 32.6387 -154.395 -20.9336 -3.11117 91.2163 -9.79182 17.9534 50.3604 -3.50686 -1.56728 0.293785 13.3169 -90.7214 0.23976 0.318438 -1.38829 -11.4319 0.257033 -1.40095 -33.9625 0.720922 -1.22702 -13.9498 0.720921 -1.22702 100.86 -31.6996 -84.7734 -7.27265 -22.6579 -66.489 -31.5166 -10.3776 -79.3899 -39.2195 -5.72494 11.0847 -81.796 -26.5971 88.6077 -27.7932 18.7353 -62.9961 26.7933 19.0506 -69.0375 3.80148 -0.241462 -7.11316 14.2298 -2.9581 18.9236 7.45422 -9.66963 -18.5749 
-1.3205 33.692 -36.6097 165.637 -65.2697 165.789 169.376 74.7182 113.842 -157.355 8.21832 2.51304 81.158 13.6522 -4.04471 60.7583 -0.888399 11.1442 -153.256 63.556 31.6846 -154.554 -20.7708 -3.09902 91.5121 -9.61406 18.5317 49.7833 -3.41908 -1.69165 0.262133 13.324 -90.7045 0.225197 0.261596 -1.35805 -11.4464 0.201586 -1.36825 -33.977 0.65763 -1.21667 -13.9644 0.657624 -1.21669 100.858 -31.5577 -84.7837 -7.17924 -22.6344 -66.5162 -32.0296 -10.4105 -79.4551 -37.4115 -5.52466 11.3295 -81.7717 -26.5973 88.658 -28.6856 18.8941 -62.512 26.9853 18.9696 -68.8907 2.79362 -0.235147 -7.87843 14.0457 -2.81575 19.6576 7.26049 -9.74096 -19.3083 
-1.3738 33.6226 -36.6701 165.545 -65.036 165.587 167.392 74.4603 115.713 -157.553 11.6992 2.50874 80.406 13.5882 -1.74521 60.4661 -0.761558 11.921 -153.258 63.5034 31.6378 -154.633 -20.8514 -3.09687 91.4238 -9.66222 18.349 49.898 -3.43912 -1.69827 0.249198 13.3497 -90.7045 0.17364 0.236184 -1.35892 -11.498 0.176149 -1.368 -34.0285 0.633645 -1.22515 -14.0158 0.633641 -1.22515 100.868 -31.5125 -84.7664 -7.30416 -22.583 -66.6012 -31.3425 -10.3742 -79.1218 -41.988 -5.97404 10.5939 -81.7669 -26.5672 88.6641 -28.679 18.8194 -62.5578 28.2537 19.4803 -69.5016 -0.863307 -0.154751 -9.1046 13.8508 -2.79951 19.6447 7.23703 -9.6886 -19.3349 
-1.39978 33.6061 -36.7323 165.472 -65.0283 165.49 166.884 74.6195 116.188 -157.486 11.5715 2.52753 80.2816 13.4242 -2.12658 60.5648 -0.728549 12.111 -152.835 63.4366 31.31 -154.659 -20.6749 -3.06277 91.5469 -9.59101 18.6178 49.4009 -3.34866 -1.63743 0.252028 13.3482 -90.7032 0.176852 0.24224 -1.35598 -11.4948 0.182336 -1.36532 -34.0253 0.638539 -1.22053 -14.0127 0.638542 -1.22053 100.892 -31.3958 -84.7225 -7.27976 -22.6085 -66.5245 -30.1271 -9.98597 -78.8048 -42.6208 -5.23697 8.42743 -81.7305 -26.6044 88.7444 -28.5552 18.8663 -62.7503 28.4674 19.6932 -69.4753 -1.17751 -0.143054 -9.40306 13.8011 -2.79339 19.8472 7.07002 -9.72513 -19.5997 
-1.44093 33.6015 -36.7917 165.638 -64.8359 165.486 168.136 74.5438 114.914 -157.494 11.5049 2.55395 80.2874 13.5204 -1.89886 60.5345 -0.708117 12.2403 -152.981 63.435 31.4129 -154.696 -20.9866 -3.06517 91.5152 -9.86699 18.02 49.7979 -3.44153 -1.91487 0.242852 13.3604 -90.6833 0.152444 0.231425 -1.31778 -11.5192 0.173212 -1.3267 -34.0499 0.616743 -1.18734 -14.0373 0.616752 -1.18734 100.79 -31.3018 -84.9316 -6.96272 -22.67 -66.3106 -30.3207 -10.0419 -78.9542 -42.504 -5.37335 8.82056 -81.7725 -26.6552 88.6638 -28.7337 19.0004 -62.6114 27.8055 19.4278 -69.1126 0.228542 -0.154258 -8.58506 13.4247 -2.88782 19.9609 7.12278 -9.81071 -19.7932 
-1.44537 33.5728 -36.8266 165.456 -64.8849 165.385 167.31 74.7503 115.66 -157.437 11.8005 2.55086 79.8963 13.3787 -1.65422 60.9088 -0.729827 12.0581 -153.422 63.6652 31.7728 -154.726 -20.9404 -3.08356 91.6533 -10.1701 17.6107 49.7215 -3.37701 -1.34718 0.239124 13.3576 -90.6929 0.158011 0.220455 -1.33691 -11.5136 0.161403 -1.34532 -34.0442 0.612028 -1.20888 -14.0316 0.61203 -1.20888 100.847 -31.129 -84.8245 -6.77225 -22.7382 -66.4803 -30.2262 -10.0213 -79.015 -41.1488 -5.1503 8.72448 -81.744 -26.6751 88.7253 -28.6103 18.9807 -62.5734 27.002 18.9504 -68.8437 7.38192 -0.233614 -5.87589 13.7915 -2.85027 19.6545 6.95087 -9.65878 -19.1215 
